<?xml version="1.0" encoding="UTF-8"?>
<svg width="200" height="200" viewBox="0 0 200 200" fill="none" xmlns="http://www.w3.org/2000/svg">
  <!-- Bowl -->
  <path d="M40 80C40 57.9086 57.9086 40 80 40H120C142.091 40 160 57.9086 160 80V120C160 142.091 142.091 160 120 160H80C57.9086 160 40 142.091 40 120V80Z" fill="#F8C8B8" fill-opacity="0.3"/>
  
  <!-- Salad leaves -->
  <path d="M70 90C70 86.134 73.134 83 77 83C80.866 83 84 86.134 84 90C84 93.866 80.866 97 77 97C73.134 97 70 93.866 70 90Z" fill="#4A7C59"/>
  <path d="M90 85C90 81.134 93.134 78 97 78C100.866 78 104 81.134 104 85C104 88.866 100.866 92 97 92C93.134 92 90 88.866 90 85Z" fill="#4A7C59"/>
  <path d="M80 100C80 96.134 83.134 93 87 93C90.866 93 94 96.134 94 100C94 103.866 90.866 107 87 107C83.134 107 80 103.866 80 100Z" fill="#4A7C59"/>
  
  <!-- Cherry tomatoes -->
  <circle cx="65" cy="100" r="8" fill="#D85A3F" fill-opacity="0.3"/>
  <circle cx="85" cy="110" r="6" fill="#D85A3F" fill-opacity="0.3"/>
  <circle cx="75" cy="120" r="7" fill="#D85A3F" fill-opacity="0.3"/>
</svg>
